<?xml version="1.0" encoding="UTF-8"?>
<svg id="Capa_2" data-name="Capa 2" xmlns="http://www.w3.org/2000/svg" xmlns:xlink="http://www.w3.org/1999/xlink" viewBox="0 0 139.54 105.18">
  <defs>
    <style>
      .cls-1 {
        fill: #fff;
      }

      .cls-2 {
        fill: url(#Degradado_sin_nombre_543);
      }
    </style>
    <linearGradient id="Degradado_sin_nombre_543" data-name="Degradado sin nombre 543" x1="-29.24" y1="103.39" x2="143.63" y2="-10.76" gradientUnits="userSpaceOnUse">
      <stop offset="0" stop-color="#cb25e0"/>
      <stop offset="1" stop-color="red"/>
    </linearGradient>
  </defs>
  <g id="Diseño">
    <g>
      <path class="cls-2" d="M0,12C1.47,5.72,6.4.74,12.93,0h113.92c6.61.94,11.93,6.31,12.68,12.94v50.36c-1.01,7.48-7.4,12.77-14.85,12.96l-68.08.05-41.06,28.7c-2.23.69-4.1-.85-3.98-3.15l9.14-25.6h-6.68c-1.42,0-3.88-.74-5.23-1.31-4.62-1.95-7.67-6.13-8.81-10.95V12Z"/>
      <g>
        <path class="cls-1" d="M17.06,34.28v-14.85h1.9v14.85h-1.9Z"/>
        <path class="cls-1" d="M22.2,22.85h1.86v1.51h.05c.42-.73,1.48-1.7,3.34-1.7,2.35,0,4.1,1.5,4.1,4.29v7.33h-1.87v-7.02c0-1.93-1.13-2.91-2.8-2.91-1.97,0-2.82,1.39-2.82,2.96v6.96h-1.87v-11.43Z"/>
        <path class="cls-1" d="M42.09,34.05v-1.69h-.05c-.46.99-1.71,1.81-3.26,1.81-2.67,0-4.57-1.87-4.57-5.3v-.95c0-3.36,1.88-5.25,4.57-5.25,1.56,0,2.8.82,3.33,1.78h.05v-1.61h1.81v11.23c0,2.93-2.27,4.4-4.86,4.4-2.91,0-4.38-1.44-4.65-3.34h1.92c.21.92,1.17,1.77,2.74,1.77,1.81,0,2.98-1.06,2.98-2.85ZM36.08,28.07v.71c0,2.37,1.13,3.8,3.06,3.8s2.96-1.44,2.96-3.8v-.71c0-2.32-1.15-3.79-2.96-3.79-1.92,0-3.06,1.37-3.06,3.79Z"/>
        <path class="cls-1" d="M47.19,22.85h1.87v1.4h.05c.34-.69,1.2-1.58,2.82-1.58.24,0,.48.02.71.05v1.71c-.2-.03-.57-.04-.91-.04-2.02,0-2.65,1.26-2.65,2.81v7.08h-1.88v-11.43Z"/>
        <path class="cls-1" d="M54.19,29.11v-1.28c0-3.01,1.71-5.17,4.71-5.17s4.71,2.15,4.71,5.3v1.07h-7.55v.21c0,2.18,1.11,3.67,2.97,3.67,1.33,0,2.2-.66,2.57-1.73h1.86c-.43,1.89-1.95,3.3-4.47,3.3-2.98,0-4.8-2.1-4.8-5.35ZM61.74,27.51v-.03c0-1.82-1.12-3.25-2.83-3.25s-2.85,1.45-2.85,3.25v.03h5.68Z"/>
        <path class="cls-1" d="M70.19,22.66c2.69,0,4.07,1.53,4.07,3.43h-1.74c-.07-.87-.61-1.89-2.39-1.89-1.36,0-2.34.6-2.34,1.73,0,1.28,1.51,1.56,2.82,1.8,2.14.38,3.95.96,3.95,3.19s-1.84,3.56-4.53,3.56c-2.51,0-4.26-1.21-4.26-3.26h1.83c.16,1.04,1.05,1.73,2.58,1.73,1.75,0,2.55-.83,2.55-1.79,0-1.29-1.27-1.54-2.87-1.86-2.13-.44-3.88-1.09-3.88-3.16,0-2.42,2.04-3.46,4.23-3.46Z"/>
        <path class="cls-1" d="M76.71,30.99c0-2,1.39-3.26,4.01-3.27h3.01v-1.16c0-1.5-.87-2.33-2.42-2.33s-2.31.75-2.42,1.89h-1.76c.12-2,1.48-3.46,4.24-3.46,2.44,0,4.21,1.33,4.21,3.73v7.89h-1.79v-1.43h-.05c-.58.92-1.62,1.61-3.31,1.61-2.21,0-3.73-1.37-3.73-3.47ZM83.73,30.48v-1.33h-2.87c-1.57,0-2.24.74-2.24,1.77,0,1.35,1.12,1.98,2.32,1.98,1.6,0,2.8-1,2.8-2.43ZM82.61,18.39h1.89l-2.47,2.97h-1.42l2-2.97Z"/>
        <path class="cls-1" d="M92.64,30.99c0-2,1.39-3.26,4.01-3.27h3.01v-1.16c0-1.5-.87-2.33-2.42-2.33s-2.31.75-2.42,1.89h-1.76c.12-2,1.48-3.46,4.24-3.46,2.44,0,4.21,1.33,4.21,3.73v7.89h-1.79v-1.43h-.05c-.58.92-1.62,1.61-3.31,1.61-2.21,0-3.73-1.37-3.73-3.47ZM99.66,30.48v-1.33h-2.87c-1.57,0-2.24.74-2.24,1.77,0,1.35,1.12,1.98,2.32,1.98,1.6,0,2.8-1,2.8-2.43Z"/>
        <path class="cls-1" d="M109.3,18.65h1.86v15.63h-1.86v-15.63Z"/>
        <path class="cls-1" d="M113.81,30.99c0-2,1.39-3.26,4.01-3.27h3.01v-1.16c0-1.5-.87-2.33-2.42-2.33s-2.31.75-2.42,1.89h-1.76c.12-2,1.48-3.46,4.24-3.46,2.44,0,4.21,1.33,4.21,3.73v7.89h-1.79v-1.43h-.05c-.58.92-1.62,1.61-3.31,1.61-2.21,0-3.73-1.37-3.73-3.47ZM120.84,30.48v-1.33h-2.87c-1.57,0-2.24.74-2.24,1.77,0,1.35,1.12,1.98,2.32,1.98,1.6,0,2.8-1,2.8-2.43Z"/>
        <path class="cls-1" d="M24.28,47.81v-1.06c0-3.38,2.08-5.39,5.11-5.39s5.09,2.14,5.09,5.46v1.13h-7.4v.32c0,1.75.99,2.86,2.45,2.86,1.14,0,1.95-.57,2.19-1.5h2.65c-.27,1.85-1.77,3.69-4.86,3.69s-5.23-1.98-5.23-5.52ZM31.71,46.15v-.02c0-1.49-.9-2.62-2.29-2.62s-2.33,1.14-2.33,2.62v.02h4.62Z"/>
        <path class="cls-1" d="M36.82,41.58h2.79v1.69h.12c.37-.79,1.42-1.87,3.35-1.87,2.35,0,3.99,1.47,3.99,4.3v7.43h-2.86v-6.81c0-1.77-1.02-2.48-2.25-2.48-1.48,0-2.29,1.07-2.29,2.52v6.77h-2.85v-11.54Z"/>
        <path class="cls-1" d="M49.27,46.81c0-3.2,1.92-5.44,5.14-5.44,2.92,0,4.69,1.85,4.75,4.07h-2.64c-.15-.96-.91-1.78-1.98-1.78-1.49,0-2.39,1.22-2.39,3.19v.91c0,2.03.92,3.27,2.41,3.27,1.27,0,1.89-.77,2.02-1.65h2.64c-.24,2.58-2.09,3.95-4.82,3.95-3.19,0-5.12-2.2-5.12-5.56v-.96Z"/>
        <path class="cls-1" d="M71.42,53.12h-2.8v-1.69h-.13c-.36.9-1.43,1.86-3.33,1.86-2.36,0-3.95-1.37-3.95-4.09v-7.63h2.86v6.87c0,1.9,1.08,2.43,2.21,2.43,1.28,0,2.26-.84,2.26-2.46v-6.83h2.87v11.54Z"/>
        <path class="cls-1" d="M73.77,47.81v-1.06c0-3.38,2.08-5.39,5.11-5.39s5.09,2.14,5.09,5.46v1.13h-7.4v.32c0,1.75.99,2.86,2.45,2.86,1.14,0,1.95-.57,2.19-1.5h2.65c-.27,1.85-1.77,3.69-4.86,3.69s-5.23-1.98-5.23-5.52ZM81.2,46.15v-.02c0-1.49-.9-2.62-2.29-2.62s-2.33,1.14-2.33,2.62v.02h4.62Z"/>
        <path class="cls-1" d="M90.52,41.37c2.75,0,4.42,1.38,4.42,3.52h-2.54c-.08-.73-.54-1.53-1.94-1.53-1.12,0-1.84.52-1.84,1.37,0,1.14,1.66,1.34,2.98,1.58,2.12.38,3.68,1.11,3.68,3.24,0,2.37-1.86,3.77-4.92,3.77s-4.7-1.39-4.7-3.45h2.77c.12.85.86,1.44,2.09,1.44,1.35,0,1.98-.64,1.98-1.39,0-1.12-1.38-1.28-2.86-1.58-2.08-.44-3.75-1.21-3.75-3.34,0-2.57,2.2-3.63,4.62-3.63Z"/>
        <path class="cls-1" d="M98.37,38.81h2.79v2.76h2.24v2.22h-2.24v5.69c0,1.15.49,1.5,1.68,1.5.24,0,.48-.01.61-.02v2.12c-.22.04-.73.1-1.31.1-2.87,0-3.82-.97-3.82-3.33v-6.06h-1.63v-2.22h1.69v-2.76Z"/>
        <path class="cls-1" d="M105.13,49.79c0-2.07,1.44-3.39,4.11-3.39h2.82v-1.04c0-1.15-.7-1.79-1.9-1.79s-1.85.62-1.93,1.54h-2.68c.09-1.93,1.33-3.71,4.66-3.71,2.66,0,4.68,1.24,4.68,3.93v7.8h-2.71v-1.4h-.12c-.46.85-1.44,1.58-3.13,1.58-2.25,0-3.8-1.33-3.8-3.5ZM112.06,49.33v-1.22h-2.2c-1.26,0-1.88.61-1.88,1.49,0,1.08.91,1.6,1.87,1.6,1.23,0,2.21-.75,2.21-1.87Z"/>
      </g>
    </g>
  </g>
</svg>