<?xml version="1.0" encoding="UTF-8"?>
<svg id="Capa_2" data-name="Capa 2" xmlns="http://www.w3.org/2000/svg" viewBox="0 0 181.72 84.19">
  <defs>
    <style>
      .cls-1 {
        fill: #009de0;
      }
    </style>
  </defs>
  <g id="Diseño">
    <g>
      <path class="cls-1" d="M18.07,9.86c1.71,0,3.22-.88,4.11-2.21.88,1.33,2.39,2.21,4.11,2.21s3.22-.88,4.11-2.21c.88,1.33,2.39,2.21,4.11,2.21,2.72,0,4.93-2.21,4.93-4.93h-3.29c0,.91-.74,1.64-1.64,1.64s-1.64-.74-1.64-1.64h-1.64c0-2.72-2.21-4.93-4.93-4.93s-4.93,2.21-4.93,4.93h-1.64c0,.91-.74,1.64-1.64,1.64s-1.64-.74-1.64-1.64h-3.29c0,2.72,2.21,4.93,4.93,4.93ZM26.29,3.29c.91,0,1.64.74,1.64,1.64s-.74,1.64-1.64,1.64-1.64-.74-1.64-1.64.74-1.64,1.64-1.64ZM1.64,69c0,5.44,4.41,9.86,9.86,9.86h9.46l5.33,5.33,5.33-5.33h9.46c5.44,0,9.86-4.41,9.86-9.86V19.71H1.64v49.29ZM26.29,79.54l-2.32-2.32,2.32-2.32,2.32,2.32-2.32,2.32ZM4.93,23h42.72v19.71h-3.36c-.83-9.21-8.57-16.43-17.99-16.43s-17.16,7.22-17.99,16.43h-3.36v-19.71ZM21.36,34.5v8.21h-9.76c.82-7.38,7.1-13.14,14.69-13.14s13.87,5.76,14.69,13.14h-9.76v-8.21h-9.86ZM27.93,37.79v13.14h-3.29v-13.14h3.29ZM4.93,46h16.43v8.21h9.86v-8.21h16.43v23c0,3.63-2.94,6.57-6.57,6.57h-9.46l-5.33-5.33-5.33,5.33h-9.46c-3.63,0-6.57-2.94-6.57-6.57v-23ZM14.65,66.33c-.69.46-1.54,1.03-3.15,1.03v-2.46c.86,0,1.23-.24,1.78-.61.69-.46,1.54-1.03,3.15-1.03s2.46.57,3.15,1.03c.55.37.92.61,1.78.61s1.23-.24,1.78-.61c.69-.46,1.54-1.03,3.15-1.03s2.46.57,3.15,1.03c.56.37.92.61,1.78.61s1.23-.24,1.78-.61c.69-.46,1.54-1.03,3.15-1.03s2.46.57,3.15,1.03c.56.37.92.61,1.78.61v2.46c-1.61,0-2.46-.57-3.15-1.03-.56-.37-.92-.61-1.78-.61s-1.23.24-1.78.61c-.69.46-1.54,1.03-3.15,1.03s-2.46-.57-3.15-1.03c-.56-.37-.92-.61-1.78-.61s-1.23.24-1.78.61c-.69.46-1.54,1.03-3.15,1.03s-2.46-.57-3.15-1.03c-.55-.37-.92-.61-1.78-.61s-1.23.24-1.78.61ZM14.65,60.58c-.69.46-1.54,1.03-3.15,1.03v-2.46c.86,0,1.23-.24,1.78-.61.69-.46,1.54-1.03,3.15-1.03s2.46.57,3.15,1.03c.55.37.92.61,1.78.61s1.23-.24,1.78-.61c.69-.46,1.54-1.03,3.15-1.03s2.46.57,3.15,1.03c.56.37.92.61,1.78.61s1.23-.24,1.78-.61c.69-.46,1.54-1.03,3.15-1.03s2.46.57,3.15,1.03c.56.37.92.61,1.78.61v2.46c-1.61,0-2.46-.57-3.15-1.03-.56-.37-.92-.61-1.78-.61s-1.23.24-1.78.61c-.69.46-1.54,1.03-3.15,1.03s-2.46-.57-3.15-1.03c-.56-.37-.92-.61-1.78-.61s-1.23.24-1.78.61c-.69.46-1.54,1.03-3.15,1.03s-2.46-.57-3.15-1.03c-.55-.37-.92-.61-1.78-.61s-1.23.24-1.78.61ZM52.57,13.14l-1.64,3.29H1.64l-1.64-3.29h52.57Z"/>
      <g>
        <path class="cls-1" d="M65.72,46v-18.34h6.85c1.4,0,2.58.25,3.54.74s1.69,1.18,2.18,2.06c.49.88.74,1.91.74,3.07s-.25,2.18-.74,3.04c-.5.86-1.23,1.53-2.2,1.99-.97.47-2.16.7-3.57.7h-4.9v-2.72h4.47c.83,0,1.51-.12,2.03-.35.52-.23.91-.58,1.17-1.03.25-.45.38-1,.38-1.64s-.13-1.22-.38-1.68c-.25-.46-.65-.82-1.18-1.06s-1.21-.37-2.05-.37h-3.06v15.58h-3.29ZM76.03,46l-4.45-8.32h3.59l4.54,8.32h-3.68Z"/>
        <path class="cls-1" d="M81.02,46v-13.76h3.2v13.76h-3.2ZM81.42,30.48l1.71-3.77h3.1l-2.49,3.77h-2.33Z"/>
        <path class="cls-1" d="M92.38,46.28c-1.34,0-2.5-.3-3.48-.89-.98-.59-1.75-1.42-2.28-2.49-.54-1.06-.81-2.3-.81-3.71s.27-2.68.81-3.75c.54-1.07,1.3-1.9,2.28-2.49.98-.59,2.15-.89,3.48-.89s2.51.3,3.5.89,1.75,1.42,2.28,2.49c.54,1.07.81,2.32.81,3.75s-.27,2.65-.81,3.71c-.54,1.06-1.3,1.89-2.28,2.49s-2.15.89-3.5.89ZM92.38,43.69c.75,0,1.37-.2,1.86-.6s.87-.94,1.11-1.62c.24-.68.36-1.44.36-2.28s-.12-1.61-.36-2.29-.61-1.22-1.11-1.62c-.5-.4-1.12-.6-1.86-.6s-1.36.2-1.85.6c-.49.4-.85.94-1.1,1.62-.24.68-.36,1.44-.36,2.3s.12,1.6.36,2.28c.24.68.61,1.22,1.1,1.62s1.11.6,1.85.6Z"/>
        <path class="cls-1" d="M114.81,46.25c-1.61,0-3.04-.37-4.31-1.12-1.26-.75-2.26-1.82-2.99-3.22-.73-1.4-1.1-3.09-1.1-5.06s.37-3.67,1.1-5.08c.73-1.41,1.73-2.48,3-3.23,1.27-.75,2.7-1.12,4.29-1.12,1,0,1.94.14,2.81.42s1.65.7,2.34,1.24,1.25,1.21,1.69,2c.44.79.74,1.68.89,2.68h-3.31c-.11-.55-.29-1.03-.55-1.45-.26-.42-.58-.77-.97-1.06-.39-.29-.82-.51-1.3-.66-.48-.15-1-.23-1.55-.23-1,0-1.89.25-2.66.76-.78.5-1.38,1.24-1.82,2.2-.44.96-.66,2.14-.66,3.53s.22,2.58.66,3.54c.44.96,1.05,1.69,1.83,2.18.78.49,1.66.74,2.64.74.55,0,1.07-.08,1.55-.23.48-.15.92-.37,1.31-.66.39-.29.72-.65.98-1.07.26-.42.44-.9.54-1.45h3.32c-.12.88-.39,1.7-.81,2.47-.41.77-.96,1.44-1.63,2.02-.67.58-1.45,1.04-2.34,1.37-.89.33-1.88.49-2.96.49Z"/>
        <path class="cls-1" d="M128.95,46.17c-.94,0-1.77-.2-2.48-.6-.71-.4-1.26-.99-1.65-1.77s-.58-1.71-.58-2.81v-8.75h3.2v8.26c0,.92.24,1.64.72,2.17.48.52,1.14.79,1.98.79.57,0,1.07-.12,1.51-.37.44-.25.79-.61,1.04-1.08s.38-1.04.38-1.7v-8.06h3.21v13.76h-3.04l-.04-3.4h.25c-.39,1.2-.96,2.09-1.71,2.68-.76.59-1.68.89-2.78.89Z"/>
        <path class="cls-1" d="M142.48,46.28c-.87,0-1.65-.16-2.35-.47s-1.25-.78-1.65-1.4c-.4-.62-.6-1.37-.6-2.28,0-.78.15-1.42.44-1.93.29-.51.69-.91,1.18-1.22s1.06-.53,1.68-.69,1.27-.27,1.94-.33c.8-.09,1.44-.17,1.94-.23.5-.07.87-.17,1.1-.32.23-.15.35-.38.35-.69v-.06c0-.45-.09-.83-.27-1.15-.18-.32-.45-.56-.81-.73-.36-.17-.8-.25-1.32-.25s-.99.08-1.38.25c-.39.16-.71.38-.95.64s-.43.55-.54.85l-2.97-.6c.27-.81.69-1.48,1.26-2.01s1.24-.92,2.02-1.19c.78-.26,1.63-.39,2.55-.39.65,0,1.3.08,1.96.23.66.15,1.27.41,1.82.77.55.36.99.85,1.33,1.45.34.61.5,1.37.5,2.29v9.19h-3.06v-1.9h-.12c-.21.39-.49.74-.84,1.08-.36.33-.8.6-1.33.8-.53.2-1.15.3-1.88.3ZM143.3,43.91c.66,0,1.24-.13,1.72-.39.48-.26.85-.61,1.12-1.04.27-.43.4-.9.4-1.41v-1.62c-.11.08-.28.16-.54.23s-.53.14-.84.2-.61.11-.91.15c-.3.04-.55.07-.76.1-.48.07-.91.17-1.29.32-.39.15-.69.35-.9.62-.22.27-.33.61-.33,1.04,0,.39.1.72.3.99.2.27.48.47.82.61.35.14.75.21,1.2.21Z"/>
        <path class="cls-1" d="M152.05,46v-13.76h3.1v2.3h.15c.25-.8.68-1.41,1.29-1.84.62-.43,1.32-.65,2.1-.65.18,0,.38,0,.6.02.22.02.41.04.57.06v2.94c-.13-.04-.34-.08-.64-.11-.3-.03-.59-.05-.87-.05-.59,0-1.12.13-1.59.38-.47.25-.84.61-1.11,1.05-.27.45-.4.96-.4,1.54v8.1h-3.2Z"/>
        <path class="cls-1" d="M168.11,32.24v2.51h-7.81v-2.51h7.81ZM162.25,28.97h3.2v13.16c0,.5.11.87.32,1.1.21.23.56.35,1.05.35.15,0,.34-.02.58-.06s.44-.07.58-.1l.5,2.47c-.35.11-.71.18-1.08.23-.37.04-.72.07-1.06.07-1.32,0-2.33-.33-3.04-.98-.71-.66-1.06-1.59-1.06-2.81v-13.43Z"/>
        <path class="cls-1" d="M175.13,46.28c-1.34,0-2.5-.3-3.48-.89-.98-.59-1.75-1.42-2.28-2.49-.54-1.06-.81-2.3-.81-3.71s.27-2.68.81-3.75c.54-1.07,1.3-1.9,2.28-2.49.98-.59,2.15-.89,3.48-.89s2.51.3,3.5.89,1.75,1.42,2.28,2.49c.54,1.07.81,2.32.81,3.75s-.27,2.65-.81,3.71c-.54,1.06-1.3,1.89-2.28,2.49s-2.15.89-3.5.89ZM175.13,43.69c.75,0,1.37-.2,1.86-.6s.87-.94,1.11-1.62c.24-.68.36-1.44.36-2.28s-.12-1.61-.36-2.29-.61-1.22-1.11-1.62c-.5-.4-1.12-.6-1.86-.6s-1.36.2-1.85.6c-.49.4-.85.94-1.1,1.62-.24.68-.36,1.44-.36,2.3s.12,1.6.36,2.28c.24.68.61,1.22,1.1,1.62s1.11.6,1.85.6Z"/>
      </g>
      <g>
        <path class="cls-1" d="M73.58,71.16c-1.63,0-3.06-.38-4.29-1.14-1.23-.76-2.19-1.85-2.88-3.26-.69-1.41-1.03-3.07-1.03-5s.34-3.62,1.03-5.03c.69-1.41,1.64-2.49,2.86-3.26,1.21-.76,2.6-1.14,4.17-1.14.97,0,1.87.14,2.71.43.84.29,1.59.7,2.26,1.23s1.22,1.17,1.66,1.9c.44.73.74,1.54.9,2.43h-2.41c-.19-.59-.44-1.12-.75-1.59-.31-.47-.68-.87-1.11-1.21-.43-.34-.92-.59-1.46-.77-.54-.18-1.14-.26-1.78-.26-1.07,0-2.05.28-2.93.83-.88.55-1.58,1.37-2.09,2.45-.52,1.08-.78,2.41-.78,3.98s.26,2.88.78,3.95c.52,1.07,1.23,1.89,2.12,2.45.89.56,1.9.84,3.03.84,1.03,0,1.94-.22,2.73-.66.79-.44,1.4-1.06,1.84-1.87.44-.81.66-1.76.66-2.86l.7.14h-5.45v-2.04h7.04v2.01c0,1.52-.32,2.83-.97,3.95-.65,1.12-1.54,1.98-2.66,2.59-1.13.61-2.42.92-3.88.92Z"/>
        <path class="cls-1" d="M89.12,71.2c-1.25,0-2.34-.3-3.28-.89-.94-.59-1.67-1.42-2.2-2.49-.52-1.07-.79-2.31-.79-3.72s.26-2.69.79-3.76c.52-1.07,1.26-1.9,2.2-2.49.94-.59,2.03-.89,3.28-.89s2.35.3,3.3.89c.94.59,1.68,1.42,2.2,2.49.52,1.07.79,2.32.79,3.76s-.26,2.65-.79,3.72c-.53,1.07-1.26,1.9-2.2,2.49-.94.59-2.04.89-3.3.89ZM89.12,69.22c.93,0,1.69-.24,2.29-.71.6-.48,1.04-1.1,1.33-1.88s.43-1.61.43-2.52-.14-1.76-.43-2.54c-.29-.78-.73-1.42-1.33-1.9-.6-.48-1.36-.72-2.29-.72s-1.67.24-2.26.72-1.03,1.11-1.32,1.89c-.29.78-.43,1.63-.43,2.55s.14,1.74.43,2.52c.29.78.73,1.4,1.32,1.88.59.48,1.35.71,2.26.71Z"/>
        <path class="cls-1" d="M103.88,71.2c-.87,0-1.57-.15-2.1-.45-.53-.3-.94-.64-1.23-1.02-.29-.38-.51-.7-.66-.95h-.25v2.13h-2.14v-18.34h2.22v6.78h.17c.16-.25.37-.56.65-.93.28-.37.68-.71,1.21-1,.52-.3,1.23-.44,2.13-.44,1.15,0,2.16.29,3.03.86s1.56,1.39,2.06,2.46.74,2.32.74,3.77-.25,2.72-.74,3.79c-.49,1.07-1.18,1.89-2.05,2.47-.87.58-1.89.87-3.03.87ZM103.55,69.22c.86,0,1.58-.23,2.16-.7.58-.46,1.01-1.09,1.3-1.87.29-.78.44-1.66.44-2.61s-.14-1.81-.43-2.58c-.29-.77-.72-1.38-1.3-1.83-.58-.45-1.3-.68-2.17-.68s-1.55.21-2.13.64c-.57.43-1.01,1.02-1.3,1.78-.29.76-.44,1.65-.44,2.66s.15,1.92.44,2.7c.3.78.73,1.39,1.31,1.83.58.44,1.28.66,2.11.66Z"/>
        <path class="cls-1" d="M112.9,54.9c-.42,0-.78-.14-1.08-.43-.3-.29-.46-.63-.46-1.03s.15-.76.46-1.04c.3-.28.66-.42,1.08-.42s.79.14,1.1.42c.3.28.46.63.46,1.04s-.15.75-.46,1.03c-.3.29-.67.43-1.1.43ZM111.78,70.91v-13.76h2.22v13.76h-2.22Z"/>
        <path class="cls-1" d="M122.49,71.2c-1.33,0-2.48-.3-3.44-.89-.96-.59-1.71-1.42-2.23-2.47-.52-1.06-.78-2.29-.78-3.7s.25-2.65.76-3.73c.51-1.07,1.23-1.92,2.16-2.52s2.02-.91,3.27-.91c.73,0,1.45.12,2.16.36.71.24,1.35.63,1.93,1.17.58.54,1.04,1.25,1.38,2.12.34.88.52,1.95.52,3.22v.92h-10.68v-1.87h9.49l-1.03.69c0-.9-.14-1.7-.42-2.41s-.7-1.25-1.26-1.65c-.56-.4-1.25-.6-2.08-.6s-1.54.2-2.13.61c-.59.41-1.04.94-1.35,1.59-.31.65-.47,1.35-.47,2.1v1.24c0,1.02.18,1.88.53,2.59.35.71.85,1.25,1.48,1.61.64.37,1.37.55,2.21.55.54,0,1.03-.08,1.48-.23.44-.16.82-.39,1.14-.71.32-.32.57-.71.74-1.18l2.14.59c-.21.69-.57,1.3-1.08,1.82-.51.52-1.14.94-1.89,1.23-.75.3-1.6.44-2.54.44Z"/>
        <path class="cls-1" d="M130.3,70.91v-13.76h2.14v2.12h.15c.25-.7.71-1.26,1.36-1.68.65-.42,1.39-.63,2.21-.63.16,0,.36,0,.58.01.23,0,.4.02.54.02v2.23c-.07-.02-.23-.04-.49-.07-.26-.03-.54-.05-.84-.05-.66,0-1.25.14-1.77.41-.52.27-.93.65-1.22,1.13-.3.48-.44,1.03-.44,1.66v8.61h-2.22Z"/>
        <path class="cls-1" d="M140.89,62.66v8.25h-2.22v-13.76h2.13v3.33s-.3,0-.3,0c.42-1.27,1.02-2.17,1.79-2.71.78-.53,1.68-.8,2.73-.8.93,0,1.74.19,2.44.57.7.38,1.24.96,1.63,1.72.39.77.58,1.73.58,2.9v8.74h-2.22v-8.55c0-1.06-.28-1.89-.83-2.49s-1.31-.9-2.27-.9c-.66,0-1.25.14-1.77.43-.52.29-.94.71-1.24,1.26-.3.55-.46,1.22-.46,2.01Z"/>
        <path class="cls-1" d="M157.95,71.2c-1.25,0-2.34-.3-3.28-.89-.94-.59-1.67-1.42-2.2-2.49-.52-1.07-.79-2.31-.79-3.72s.26-2.69.79-3.76c.52-1.07,1.26-1.9,2.2-2.49.94-.59,2.03-.89,3.28-.89s2.35.3,3.3.89c.94.59,1.68,1.42,2.2,2.49.52,1.07.79,2.32.79,3.76s-.26,2.65-.79,3.72c-.53,1.07-1.26,1.9-2.2,2.49-.94.59-2.04.89-3.3.89ZM157.95,69.22c.93,0,1.69-.24,2.29-.71.6-.48,1.04-1.1,1.33-1.88s.43-1.61.43-2.52-.14-1.76-.43-2.54c-.29-.78-.73-1.42-1.33-1.9-.6-.48-1.36-.72-2.29-.72s-1.67.24-2.26.72-1.03,1.11-1.32,1.89c-.29.78-.43,1.63-.43,2.55s.14,1.74.43,2.52.73,1.4,1.32,1.88c.59.48,1.35.71,2.26.71Z"/>
      </g>
    </g>
  </g>
</svg>