<?xml version="1.0" encoding="UTF-8"?>
<svg id="Capa_2" data-name="Capa 2" xmlns="http://www.w3.org/2000/svg" viewBox="0 0 31.71 32.83">
  <defs>
    <style>
      .cls-1 {
        fill: #009de0;
      }
    </style>
  </defs>
  <g id="Diseño">
    <g>
      <path class="cls-1" d="M20.75,17.11c.78.29,2.42.87,2.96,1.47.6.67.51,1.75-.24,2.26-1.07.73-2.07-.28-3.04-.72-7.49-3.35-16.32,1.43-17.32,9.6-.08.67,0,1.59-.21,2.17-.54,1.43-2.68,1.16-2.87-.37-.08-.64.05-1.69.14-2.36.75-5.31,4.49-10.05,9.48-11.98-3.64-2.68-5.04-7.44-3.15-11.63C8.5,1.09,13.71-1.13,18.34.57c6.57,2.42,8.31,10.8,3.28,15.71-.21.21-.63.45-.81.66-.05.06-.09.08-.07.18ZM15.08,2.97c-4.62.02-7.73,4.77-5.93,9.03,2.01,4.77,8.65,5.3,11.42.92s-.4-9.98-5.49-9.96Z"/>
      <path class="cls-1" d="M23.88,29.19l5.13-7.74c1.12-1.35,3.24-.15,2.56,1.51-2.07,2.85-3.83,6.2-5.96,8.98-.57.75-1.09,1.05-2.06.69-1.39-1.12-3.41-2.01-4.73-3.15-1.34-1.16-.02-3.33,1.73-2.43.43.22,3.16,2.26,3.32,2.15Z"/>
    </g>
  </g>
</svg>