<?xml version="1.0" encoding="UTF-8"?>
<svg id="Capa_2" data-name="Capa 2" xmlns="http://www.w3.org/2000/svg" viewBox="0 0 28.77 32.57">
  <defs>
    <style>
      .cls-1 {
        fill: #009de0;
      }
    </style>
  </defs>
  <g id="Diseño">
    <g>
      <path class="cls-1" d="M24.56,32.57H4.2C1.84,32.21.17,30.41,0,28.02V4.61C.15,2.14,1.89.26,4.36,0l17.21.03.32.19c1.87,1.86,3.88,3.59,5.76,5.44.38.37,1.05.9,1.11,1.43-.05,7.16.1,14.34-.07,21.49-.3,2.02-2.07,3.78-4.13,3.98ZM20.42,1.72H4.36c-1.28,0-2.66,1.63-2.64,2.9v23.28c.11,1.6,1.21,2.81,2.83,2.96h19.72c1.31-.03,2.77-1.46,2.77-2.77V7.95h-4.36c-.95,0-2.26-1.39-2.26-2.32V1.72ZM25.64,6.23l-3.5-3.37v2.64c0,.23.49.73.73.73h2.77Z"/>
      <path class="cls-1" d="M17.29,16.49c3.93-.25,6.42,4.2,4.22,7.45l3.2,3.23c.58.86-.33,1.79-1.17,1.23l-3.23-3.2c-.36.14-.66.35-1.02.49-3.74,1.41-7.37-1.99-6.27-5.82.54-1.89,2.31-3.24,4.27-3.37ZM17.29,18.21c-4.45.46-2.99,7.39,1.32,5.9,3.31-1.14,2.19-6.27-1.32-5.9Z"/>
      <path class="cls-1" d="M6.41,9.43h15.83c.85.09.97,1.33.17,1.62-5.17.19-10.38.03-15.57.09-1.1.02-1.45-1.25-.43-1.71Z"/>
      <path class="cls-1" d="M6.41,13.31l15.83-.02c1.19.31.79,1.79-.38,1.72H6.9c-1.12.05-1.56-1.26-.49-1.71Z"/>
      <path class="cls-1" d="M10.16,17.39c.43.42.21,1.34-.4,1.44-.97.15-2.34-.1-3.35,0-.96-.43-.74-1.57.31-1.7.63-.08,2.02-.06,2.66,0,.24.02.6.1.77.27Z"/>
    </g>
  </g>
</svg>