<?xml version="1.0" encoding="UTF-8"?>
<svg id="Capa_2" data-name="Capa 2" xmlns="http://www.w3.org/2000/svg" viewBox="0 0 34.96 34.96">
  <defs>
    <style>
      .cls-1 {
        fill: #009de0;
      }
    </style>
  </defs>
  <g id="Diseño">
    <g>
      <path class="cls-1" d="M34.96,14.97c-.21.68-.72,1.14-1.47,1.1-.55-.03-1.14-.57-1.63-.84-3.95-2.12-8.82-1.47-12.06,1.61-.2,1.45-.67,2.77-1.6,3.91-.13.17-.63.57-.68.69-.05.11.04.09.09.12,1.13.57,3.69,1.31,3.11,3.01-.17.48-.67.84-1.18.87-.66.04-1.95-.94-2.65-1.24-4.82-2.07-10.62-.17-13.26,4.34-.74,1.26-1.79,3.32.39,3.74h12.23c1.31.35,1.48,2.06.24,2.61l-13.26.03C-.01,33.97-.67,31.32.62,28.4c1.43-3.24,4.21-5.66,7.46-6.96-2.72-2.49-3-6.63-.68-9.5,3.32-4.11,9.87-3.11,11.83,1.74.11.07,1.11-.65,1.32-.76.52-.29,1.11-.59,1.69-.74.08-.09-.59-.67-.68-.79-4.17-5.1.46-12.6,6.9-11.21,4.82,1.04,7.11,6.84,4.16,10.86-.26.36-.67.67-.88.97-.04.06-.1.07-.07.17.54.19,1.07.44,1.57.72.68.37,1.44.77,1.71,1.54v.55ZM26.46,2.75c-5.95.68-4.16,10.01,1.71,8.27,4.91-1.46,3.38-8.85-1.71-8.27ZM12.31,12.12c-5.67.58-4.47,9.55,1.39,8.36,5.08-1.03,4.07-8.91-1.39-8.36Z"/>
      <path class="cls-1" d="M34.96,28.79c-.15.23-.21.52-.42.71-.09.09-.62.38-.71.38h-4v4c0,.16-.35.68-.5.8-.47.39-1.38.37-1.82-.06-.1-.1-.42-.64-.42-.75v-4h-4c-.11,0-.65-.31-.75-.42-.61-.64-.47-1.72.31-2.14.07-.04.34-.18.37-.18h4.07v-4c0-.57.79-1.12,1.33-1.13.58-.01,1.4.52,1.4,1.13v4h4.07c.39,0,1,.71,1.06,1.09v.55Z"/>
    </g>
  </g>
</svg>