<?xml version="1.0" encoding="UTF-8"?>
<svg id="Capa_2" data-name="Capa 2" xmlns="http://www.w3.org/2000/svg" viewBox="0 0 33.09 33.11">
  <defs>
    <style>
      .cls-1 {
        fill: #009de0;
      }
    </style>
  </defs>
  <g id="Diseño">
    <g>
      <path class="cls-1" d="M33.09,15.58v1.94l-.37,2.51c-1.34,6.3-6.41,11.36-12.71,12.7l-2.51.37c-.64-.03-1.3.04-1.94,0C1.03,32.27-5.43,14.1,5.45,4.27c10.29-9.31,26.86-2.41,27.65,11.31ZM15.43,2.6C6.74,3.18.77,11.87,3.04,20.25c2.63,9.7,14.59,13.55,22.39,7.1C35.94,18.64,29.09,1.7,15.43,2.6Z"/>
      <path class="cls-1" d="M16.26,7.71c.79-.13,1.39.3,1.55,1.07l.03,7.21,4.77,3.63c.94,1.21-.3,2.7-1.68,1.93-1.73-.96-3.48-2.84-5.21-3.91-.32-.26-.45-.66-.49-1.06-.21-2.45.16-5.21,0-7.7.08-.56.43-1.08,1.02-1.18Z"/>
    </g>
  </g>
</svg>